# xmcd
#
# Track frame offsets:
#	150
#	19949
#	39811
#	59639
#	77988
#	99104
#	141218
#	162245
#	184346
#	199273
#	213259
#	229626
#
# Disc length: 3217 seconds
#
# Revision: 1
# Processed by: cddbd v1.5.1PL2 Copyright (c) Steve Scherf et al.
# Submitted via: EasyCDDAExtractor 9.0.0.1
#
DISCID=9f0c8f0c
DTITLE=Eagles - Takin' It Easy - The Blues Tribute To The Eagles
DYEAR=2001
DGENRE=Blues
TTITLE0=Life In The Fast Lane
TTITLE1=The Long Run
TTITLE2=Witchy Woman
TTITLE3=Desperado
TTITLE4=Take It Easy
TTITLE5=Hotel California
TTITLE6=One Of These Nights
TTITLE7=Already Gone
TTITLE8=Victim Of Love
TTITLE9=All Night Long
TTITLE10=Heartache Tonight
TTITLE11=Tequila Sunrise
EXTD=
EXTT0=
EXTT1=
EXTT2=
EXTT3=
EXTT4=
EXTT5=
EXTT6=
EXTT7=
EXTT8=
EXTT9=
EXTT10=
EXTT11=
PLAYORDER=
